<svg width="1844" height="256" viewBox="0 0 1844 256" fill="none" xmlns="http://www.w3.org/2000/svg">
<path d="M978.685 147H964.835L1004.89 37.9091H1018.53L1058.59 147H1044.74L1012.14 55.1676H1011.28L978.685 147ZM983.798 104.386H1039.62V116.105H983.798V104.386ZM1158.23 72H1145.02C1144.24 68.2003 1142.88 64.8622 1140.92 61.9858C1139.01 59.1094 1136.66 56.6946 1133.89 54.7415C1131.16 52.7528 1128.12 51.2614 1124.78 50.267C1121.44 49.2727 1117.96 48.7756 1114.34 48.7756C1107.74 48.7756 1101.75 50.4446 1096.39 53.7827C1091.06 57.1207 1086.82 62.0391 1083.66 68.5376C1080.54 75.0362 1078.97 83.0085 1078.97 92.4545C1078.97 101.901 1080.54 109.873 1083.66 116.371C1086.82 122.87 1091.06 127.788 1096.39 131.126C1101.75 134.464 1107.74 136.134 1114.34 136.134C1117.96 136.134 1121.44 135.636 1124.78 134.642C1128.12 133.648 1131.16 132.174 1133.89 130.221C1136.66 128.232 1139.01 125.8 1140.92 122.923C1142.88 120.011 1144.24 116.673 1145.02 112.909H1158.23C1157.24 118.484 1155.43 123.474 1152.8 127.877C1150.17 132.281 1146.91 136.027 1143 139.116C1139.09 142.17 1134.71 144.496 1129.84 146.094C1125.01 147.692 1119.85 148.491 1114.34 148.491C1105.04 148.491 1096.76 146.219 1089.52 141.673C1082.28 137.128 1076.58 130.665 1072.42 122.284C1068.27 113.903 1066.19 103.96 1066.19 92.4545C1066.19 80.9489 1068.27 71.0057 1072.42 62.625C1076.58 54.2443 1082.28 47.7812 1089.52 43.2358C1096.76 38.6903 1105.04 36.4176 1114.34 36.4176C1119.85 36.4176 1125.01 37.2166 1129.84 38.8146C1134.71 40.4126 1139.09 42.7564 1143 45.8459C1146.91 48.8999 1150.17 52.6285 1152.8 57.032C1155.43 61.3999 1157.24 66.3892 1158.23 72ZM1184.06 147H1170.21L1210.26 37.9091H1223.9L1263.96 147H1250.11L1217.51 55.1676H1216.66L1184.06 147ZM1189.17 104.386H1244.99V116.105H1189.17V104.386ZM1314.61 147H1280.95V37.9091H1316.1C1326.69 37.9091 1335.74 40.093 1343.27 44.4609C1350.8 48.7933 1356.57 55.0256 1360.58 63.1577C1364.6 71.2543 1366.6 80.9489 1366.6 92.2415C1366.6 103.605 1364.58 113.388 1360.53 121.592C1356.48 129.759 1350.59 136.045 1342.84 140.448C1335.1 144.816 1325.69 147 1314.61 147ZM1294.16 135.281H1313.76C1322.78 135.281 1330.26 133.541 1336.19 130.061C1342.12 126.581 1346.54 121.627 1349.45 115.2C1352.36 108.772 1353.82 101.119 1353.82 92.2415C1353.82 83.4347 1352.38 75.853 1349.5 69.4964C1346.63 63.1044 1342.33 58.2038 1336.61 54.7947C1330.9 51.3501 1323.78 49.6278 1315.25 49.6278H1294.16V135.281ZM1388.76 147V37.9091H1454.6V49.6278H1401.97V86.4886H1451.19V98.2074H1401.97V135.281H1455.45V147H1388.76ZM1478.41 37.9091H1494.18L1531.25 128.463H1532.53L1569.6 37.9091H1585.37V147H1573.01V64.1165H1571.95L1537.86 147H1525.92L1491.83 64.1165H1490.77V147H1478.41V37.9091ZM1625.07 37.9091V147H1611.86V37.9091H1625.07ZM1739.34 72H1726.13C1725.35 68.2003 1723.98 64.8622 1722.03 61.9858C1720.11 59.1094 1717.76 56.6946 1715 54.7415C1712.26 52.7528 1709.22 51.2614 1705.89 50.267C1702.55 49.2727 1699.07 48.7756 1695.45 48.7756C1688.84 48.7756 1682.86 50.4446 1677.5 53.7827C1672.17 57.1207 1667.92 62.0391 1664.76 68.5376C1661.64 75.0362 1660.08 83.0085 1660.08 92.4545C1660.08 101.901 1661.64 109.873 1664.76 116.371C1667.92 122.87 1672.17 127.788 1677.5 131.126C1682.86 134.464 1688.84 136.134 1695.45 136.134C1699.07 136.134 1702.55 135.636 1705.89 134.642C1709.22 133.648 1712.26 132.174 1715 130.221C1717.76 128.232 1720.11 125.8 1722.03 122.923C1723.98 120.011 1725.35 116.673 1726.13 112.909H1739.34C1738.34 118.484 1736.53 123.474 1733.9 127.877C1731.28 132.281 1728.01 136.027 1724.1 139.116C1720.2 142.17 1715.81 144.496 1710.95 146.094C1706.12 147.692 1700.95 148.491 1695.45 148.491C1686.14 148.491 1677.87 146.219 1670.62 141.673C1663.38 137.128 1657.68 130.665 1653.52 122.284C1649.37 113.903 1647.29 103.96 1647.29 92.4545C1647.29 80.9489 1649.37 71.0057 1653.52 62.625C1657.68 54.2443 1663.38 47.7812 1670.62 43.2358C1677.87 38.6903 1686.14 36.4176 1695.45 36.4176C1700.95 36.4176 1706.12 37.2166 1710.95 38.8146C1715.81 40.4126 1720.2 42.7564 1724.1 45.8459C1728.01 48.8999 1731.28 52.6285 1733.9 57.032C1736.53 61.3999 1738.34 66.3892 1739.34 72ZM1820.34 65.1818C1819.7 59.7841 1817.11 55.5938 1812.57 52.6108C1808.02 49.6278 1802.45 48.1364 1795.84 48.1364C1791.01 48.1364 1786.79 48.9176 1783.16 50.4801C1779.58 52.0426 1776.77 54.191 1774.75 56.9254C1772.76 59.6598 1771.76 62.767 1771.76 66.2472C1771.76 69.1591 1772.46 71.6626 1773.84 73.7578C1775.26 75.8175 1777.07 77.5398 1779.28 78.9247C1781.48 80.2741 1783.78 81.3928 1786.2 82.2805C1788.61 83.1328 1790.83 83.8253 1792.86 84.358L1803.94 87.3409C1806.78 88.0866 1809.94 89.1165 1813.42 90.4304C1816.93 91.7443 1820.29 93.5376 1823.49 95.8104C1826.72 98.0476 1829.38 100.924 1831.48 104.44C1833.57 107.955 1834.62 112.27 1834.62 117.384C1834.62 123.278 1833.07 128.605 1829.99 133.364C1826.93 138.122 1822.46 141.904 1816.56 144.71C1810.7 147.515 1803.58 148.918 1795.2 148.918C1787.39 148.918 1780.62 147.657 1774.91 145.136C1769.23 142.614 1764.75 139.099 1761.48 134.589C1758.25 130.079 1756.42 124.841 1756 118.875H1769.63C1769.99 122.994 1771.37 126.403 1773.79 129.102C1776.24 131.766 1779.33 133.754 1783.06 135.068C1786.82 136.347 1790.87 136.986 1795.2 136.986C1800.24 136.986 1804.77 136.169 1808.78 134.536C1812.8 132.866 1815.98 130.558 1818.32 127.611C1820.66 124.628 1821.84 121.148 1821.84 117.17C1821.84 113.548 1820.82 110.601 1818.8 108.328C1816.78 106.055 1814.11 104.209 1810.81 102.788C1807.51 101.368 1803.94 100.125 1800.1 99.0597L1786.68 95.2244C1778.16 92.7741 1771.41 89.2763 1766.44 84.7308C1761.47 80.1854 1758.98 74.2372 1758.98 66.8864C1758.98 60.7784 1760.63 55.4517 1763.93 50.9062C1767.27 46.3253 1771.75 42.7741 1777.36 40.2528C1783 37.696 1789.31 36.4176 1796.27 36.4176C1803.3 36.4176 1809.55 37.6783 1815.02 40.1996C1820.49 42.6854 1824.82 46.0945 1828.01 50.4268C1831.25 54.7592 1832.95 59.6776 1833.13 65.1818H1820.34Z" fill="#0D86D6"/>
<path d="M975.864 183.273V224H970.932V183.273H975.864ZM983.525 187.648V183.273H1014.07V187.648H1001.26V224H996.332V187.648H983.525ZM1050 224H1037.43V183.273H1050.56C1054.51 183.273 1057.89 184.088 1060.7 185.719C1063.51 187.336 1065.66 189.663 1067.16 192.699C1068.66 195.722 1069.41 199.341 1069.41 203.557C1069.41 207.799 1068.65 211.452 1067.14 214.514C1065.63 217.563 1063.43 219.91 1060.54 221.554C1057.65 223.185 1054.14 224 1050 224ZM1042.36 219.625H1049.68C1053.05 219.625 1055.84 218.975 1058.05 217.676C1060.27 216.377 1061.92 214.527 1063.01 212.128C1064.09 209.728 1064.64 206.871 1064.64 203.557C1064.64 200.269 1064.1 197.438 1063.03 195.065C1061.95 192.679 1060.35 190.849 1058.21 189.577C1056.08 188.291 1053.42 187.648 1050.24 187.648H1042.36V219.625ZM1077.68 224V183.273H1102.26V187.648H1082.61V201.409H1100.99V205.784H1082.61V219.625H1102.58V224H1077.68ZM1112.82 183.273L1124.91 217.557H1125.39L1137.48 183.273H1142.65L1127.7 224H1122.61L1107.65 183.273H1112.82ZM1148.99 224V183.273H1173.57V187.648H1153.93V201.409H1172.3V205.784H1153.93V219.625H1173.89V224H1148.99ZM1182.46 224V183.273H1187.39V219.625H1206.33V224H1182.46ZM1246.74 203.636C1246.74 207.932 1245.97 211.644 1244.41 214.773C1242.86 217.902 1240.74 220.314 1238.03 222.011C1235.33 223.708 1232.24 224.557 1228.76 224.557C1225.29 224.557 1222.2 223.708 1219.5 222.011C1216.79 220.314 1214.66 217.902 1213.11 214.773C1211.56 211.644 1210.79 207.932 1210.79 203.636C1210.79 199.341 1211.56 195.629 1213.11 192.5C1214.66 189.371 1216.79 186.958 1219.5 185.261C1222.2 183.564 1225.29 182.716 1228.76 182.716C1232.24 182.716 1235.33 183.564 1238.03 185.261C1240.74 186.958 1242.86 189.371 1244.41 192.5C1245.97 195.629 1246.74 199.341 1246.74 203.636ZM1241.97 203.636C1241.97 200.11 1241.38 197.134 1240.2 194.707C1239.03 192.281 1237.45 190.445 1235.45 189.199C1233.46 187.953 1231.23 187.33 1228.76 187.33C1226.3 187.33 1224.06 187.953 1222.06 189.199C1220.07 190.445 1218.49 192.281 1217.31 194.707C1216.14 197.134 1215.56 200.11 1215.56 203.636C1215.56 207.163 1216.14 210.139 1217.31 212.565C1218.49 214.991 1220.07 216.828 1222.06 218.074C1224.06 219.32 1226.3 219.943 1228.76 219.943C1231.23 219.943 1233.46 219.32 1235.45 218.074C1237.45 216.828 1239.03 214.991 1240.2 212.565C1241.38 210.139 1241.97 207.163 1241.97 203.636ZM1255.03 224V183.273H1268.79C1271.99 183.273 1274.6 183.849 1276.63 185.003C1278.67 186.143 1280.18 187.688 1281.16 189.636C1282.15 191.585 1282.64 193.759 1282.64 196.159C1282.64 198.559 1282.15 200.74 1281.16 202.702C1280.2 204.664 1278.7 206.228 1276.67 207.395C1274.64 208.548 1272.04 209.125 1268.87 209.125H1259.01V204.75H1268.72C1270.9 204.75 1272.66 204.372 1273.99 203.616C1275.31 202.861 1276.27 201.84 1276.87 200.554C1277.48 199.255 1277.78 197.79 1277.78 196.159C1277.78 194.528 1277.48 193.07 1276.87 191.784C1276.27 190.498 1275.3 189.491 1273.97 188.761C1272.63 188.019 1270.85 187.648 1268.64 187.648H1259.97V224H1255.03ZM1290.58 183.273H1296.47L1310.31 217.08H1310.78L1324.63 183.273H1330.51V224H1325.9V193.057H1325.5L1312.77 224H1308.32L1295.59 193.057H1295.19V224H1290.58V183.273ZM1340.4 224V183.273H1364.98V187.648H1345.33V201.409H1363.71V205.784H1345.33V219.625H1365.3V224H1340.4ZM1406.16 183.273V224H1401.39L1379.2 192.023H1378.8V224H1373.87V183.273H1378.64L1400.91 215.33H1401.31V183.273H1406.16ZM1413.81 187.648V183.273H1444.35V187.648H1431.54V224H1426.61V187.648H1413.81ZM1478.61 224.557C1475.93 224.557 1473.63 224.066 1471.69 223.085C1469.75 222.104 1468.26 220.759 1467.22 219.048C1466.17 217.338 1465.64 215.383 1465.64 213.182C1465.64 211.485 1466 209.98 1466.72 208.668C1467.45 207.342 1468.45 206.116 1469.72 204.989C1471.01 203.848 1472.49 202.708 1474.16 201.568L1480.04 197.193C1481.2 196.437 1482.12 195.629 1482.81 194.767C1483.51 193.905 1483.86 192.778 1483.86 191.386C1483.86 190.352 1483.4 189.351 1482.49 188.384C1481.59 187.416 1480.4 186.932 1478.93 186.932C1477.89 186.932 1476.98 187.197 1476.18 187.727C1475.4 188.244 1474.79 188.907 1474.34 189.716C1473.9 190.511 1473.68 191.333 1473.68 192.182C1473.68 193.136 1473.94 194.104 1474.45 195.085C1474.98 196.053 1475.65 197.047 1476.46 198.068C1477.29 199.076 1478.13 200.11 1479.01 201.17L1497.7 224H1492.05L1476.62 205.386C1475.19 203.663 1473.89 202.098 1472.72 200.693C1471.56 199.288 1470.63 197.902 1469.94 196.537C1469.25 195.171 1468.91 193.693 1468.91 192.102C1468.91 190.273 1469.31 188.669 1470.12 187.29C1470.94 185.898 1472.09 184.817 1473.56 184.048C1475.04 183.266 1476.78 182.875 1478.77 182.875C1480.81 182.875 1482.57 183.273 1484.04 184.068C1485.51 184.85 1486.64 185.891 1487.44 187.19C1488.24 188.476 1488.63 189.875 1488.63 191.386C1488.63 193.335 1488.15 195.026 1487.18 196.457C1486.21 197.889 1484.89 199.222 1483.22 200.455L1475.11 206.5C1473.28 207.852 1472.04 209.165 1471.39 210.438C1470.74 211.71 1470.42 212.625 1470.42 213.182C1470.42 214.455 1470.75 215.641 1471.41 216.741C1472.07 217.842 1473.01 218.73 1474.22 219.406C1475.42 220.082 1476.83 220.42 1478.45 220.42C1479.99 220.42 1481.49 220.096 1482.95 219.446C1484.4 218.783 1485.72 217.829 1486.9 216.582C1488.1 215.336 1489.04 213.838 1489.73 212.088C1490.43 210.338 1490.78 208.369 1490.78 206.182H1495.32C1495.32 208.886 1495 211.094 1494.38 212.804C1493.76 214.514 1493.05 215.853 1492.27 216.821C1491.49 217.789 1490.86 218.511 1490.38 218.989C1490.22 219.187 1490.08 219.386 1489.95 219.585C1489.81 219.784 1489.67 219.983 1489.51 220.182C1488.2 221.653 1486.54 222.754 1484.54 223.483C1482.54 224.199 1480.56 224.557 1478.61 224.557ZM1519.28 224V183.273H1543.86V187.648H1524.22V201.409H1542.59V205.784H1524.22V219.625H1544.18V224H1519.28ZM1565.32 224H1552.75V183.273H1565.88C1569.83 183.273 1573.21 184.088 1576.02 185.719C1578.83 187.336 1580.98 189.663 1582.48 192.699C1583.98 195.722 1584.73 199.341 1584.73 203.557C1584.73 207.799 1583.97 211.452 1582.46 214.514C1580.95 217.563 1578.75 219.91 1575.86 221.554C1572.97 223.185 1569.46 224 1565.32 224ZM1557.68 219.625H1565C1568.37 219.625 1571.16 218.975 1573.37 217.676C1575.59 216.377 1577.24 214.527 1578.33 212.128C1579.41 209.728 1579.96 206.871 1579.96 203.557C1579.96 200.269 1579.42 197.438 1578.35 195.065C1577.27 192.679 1575.67 190.849 1573.53 189.577C1571.4 188.291 1568.74 187.648 1565.56 187.648H1557.68V219.625ZM1619.73 183.273H1624.66V210.239C1624.66 213.023 1624 215.509 1622.69 217.696C1621.39 219.87 1619.56 221.587 1617.18 222.847C1614.81 224.093 1612.03 224.716 1608.83 224.716C1605.64 224.716 1602.85 224.093 1600.48 222.847C1598.11 221.587 1596.26 219.87 1594.95 217.696C1593.65 215.509 1593 213.023 1593 210.239V183.273H1597.93V209.841C1597.93 211.83 1598.37 213.599 1599.25 215.151C1600.12 216.688 1601.37 217.902 1602.99 218.79C1604.62 219.665 1606.56 220.102 1608.83 220.102C1611.1 220.102 1613.05 219.665 1614.68 218.79C1616.31 217.902 1617.56 216.688 1618.42 215.151C1619.29 213.599 1619.73 211.83 1619.73 209.841V183.273ZM1667.28 196H1662.35C1662.06 194.581 1661.55 193.335 1660.82 192.261C1660.1 191.188 1659.23 190.286 1658.19 189.557C1657.17 188.814 1656.04 188.258 1654.79 187.886C1653.55 187.515 1652.25 187.33 1650.9 187.33C1648.43 187.33 1646.2 187.953 1644.19 189.199C1642.21 190.445 1640.62 192.281 1639.44 194.707C1638.28 197.134 1637.69 200.11 1637.69 203.636C1637.69 207.163 1638.28 210.139 1639.44 212.565C1640.62 214.991 1642.21 216.828 1644.19 218.074C1646.2 219.32 1648.43 219.943 1650.9 219.943C1652.25 219.943 1653.55 219.758 1654.79 219.386C1656.04 219.015 1657.17 218.465 1658.19 217.736C1659.23 216.993 1660.1 216.085 1660.82 215.011C1661.55 213.924 1662.06 212.678 1662.35 211.273H1667.28C1666.91 213.354 1666.24 215.217 1665.25 216.861C1664.27 218.505 1663.05 219.903 1661.6 221.057C1660.14 222.197 1658.5 223.065 1656.68 223.662C1654.88 224.259 1652.95 224.557 1650.9 224.557C1647.42 224.557 1644.33 223.708 1641.63 222.011C1638.92 220.314 1636.8 217.902 1635.25 214.773C1633.69 211.644 1632.92 207.932 1632.92 203.636C1632.92 199.341 1633.69 195.629 1635.25 192.5C1636.8 189.371 1638.92 186.958 1641.63 185.261C1644.33 183.564 1647.42 182.716 1650.9 182.716C1652.95 182.716 1654.88 183.014 1656.68 183.611C1658.5 184.207 1660.14 185.082 1661.6 186.236C1663.05 187.376 1664.27 188.768 1665.25 190.412C1666.24 192.043 1666.91 193.905 1667.28 196ZM1676.92 224H1671.75L1686.71 183.273H1691.8L1706.75 224H1701.58L1689.41 189.716H1689.09L1676.92 224ZM1678.83 208.091H1699.67V212.466H1678.83V208.091ZM1706.11 187.648V183.273H1736.66V187.648H1723.85V224H1718.92V187.648H1706.11ZM1749.2 183.273V224H1744.27V183.273H1749.2ZM1793.45 203.636C1793.45 207.932 1792.68 211.644 1791.12 214.773C1789.57 217.902 1787.45 220.314 1784.74 222.011C1782.04 223.708 1778.95 224.557 1775.47 224.557C1772 224.557 1768.91 223.708 1766.21 222.011C1763.5 220.314 1761.38 217.902 1759.82 214.773C1758.27 211.644 1757.5 207.932 1757.5 203.636C1757.5 199.341 1758.27 195.629 1759.82 192.5C1761.38 189.371 1763.5 186.958 1766.21 185.261C1768.91 183.564 1772 182.716 1775.47 182.716C1778.95 182.716 1782.04 183.564 1784.74 185.261C1787.45 186.958 1789.57 189.371 1791.12 192.5C1792.68 195.629 1793.45 199.341 1793.45 203.636ZM1788.68 203.636C1788.68 200.11 1788.09 197.134 1786.91 194.707C1785.74 192.281 1784.16 190.445 1782.16 189.199C1780.17 187.953 1777.94 187.33 1775.47 187.33C1773.01 187.33 1770.77 187.953 1768.77 189.199C1766.78 190.445 1765.2 192.281 1764.02 194.707C1762.85 197.134 1762.27 200.11 1762.27 203.636C1762.27 207.163 1762.85 210.139 1764.02 212.565C1765.2 214.991 1766.78 216.828 1768.77 218.074C1770.77 219.32 1773.01 219.943 1775.47 219.943C1777.94 219.943 1780.17 219.32 1782.16 218.074C1784.16 216.828 1785.74 214.991 1786.91 212.565C1788.09 210.139 1788.68 207.163 1788.68 203.636ZM1834.04 183.273V224H1829.27L1807.07 192.023H1806.68V224H1801.74V183.273H1806.52L1828.79 215.33H1829.19V183.273H1834.04Z" fill="#0D86D6"/>
<path d="M222.159 90.7955H179.659C178.447 83.8258 176.212 77.6515 172.955 72.2727C169.697 66.8182 165.644 62.197 160.795 58.4091C155.947 54.6212 150.417 51.7803 144.205 49.8864C138.068 47.9167 131.439 46.9318 124.318 46.9318C111.667 46.9318 100.455 50.1136 90.6818 56.4773C80.9091 62.7651 73.2576 72.0076 67.7273 84.2045C62.197 96.3258 59.4318 111.136 59.4318 128.636C59.4318 146.439 62.197 161.439 67.7273 173.636C73.3333 185.758 80.9848 194.924 90.6818 201.136C100.455 207.273 111.629 210.341 124.205 210.341C131.174 210.341 137.689 209.432 143.75 207.614C149.886 205.72 155.379 202.955 160.227 199.318C165.152 195.682 169.28 191.212 172.614 185.909C176.023 180.606 178.371 174.545 179.659 167.727L222.159 167.955C220.568 179.015 217.121 189.394 211.818 199.091C206.591 208.788 199.735 217.348 191.25 224.773C182.765 232.121 172.841 237.879 161.477 242.045C150.114 246.136 137.5 248.182 123.636 248.182C103.182 248.182 84.9242 243.447 68.8636 233.977C52.803 224.508 40.1515 210.833 30.9091 192.955C21.6667 175.076 17.0455 153.636 17.0455 128.636C17.0455 103.561 21.7045 82.1212 31.0227 64.3182C40.3409 46.4394 53.0303 32.7651 69.0909 23.2954C85.1515 13.8257 103.333 9.0909 123.636 9.0909C136.591 9.0909 148.636 10.9091 159.773 14.5454C170.909 18.1818 180.833 23.5227 189.545 30.5682C198.258 37.5379 205.417 46.0985 211.023 56.25C216.705 66.3258 220.417 77.8409 222.159 90.7955ZM468.722 128.636C468.722 153.712 464.025 175.189 454.631 193.068C445.313 210.871 432.585 224.508 416.449 233.977C400.388 243.447 382.169 248.182 361.79 248.182C341.411 248.182 323.153 243.447 307.017 233.977C290.956 224.432 278.229 210.758 268.835 192.955C259.517 175.076 254.858 153.636 254.858 128.636C254.858 103.561 259.517 82.1212 268.835 64.3182C278.229 46.4394 290.956 32.7651 307.017 23.2954C323.153 13.8257 341.411 9.0909 361.79 9.0909C382.169 9.0909 400.388 13.8257 416.449 23.2954C432.585 32.7651 445.313 46.4394 454.631 64.3182C464.025 82.1212 468.722 103.561 468.722 128.636ZM426.335 128.636C426.335 110.985 423.57 96.0985 418.04 83.9773C412.585 71.7803 405.009 62.5758 395.312 56.3636C385.616 50.0758 374.441 46.9318 361.79 46.9318C349.138 46.9318 337.964 50.0758 328.267 56.3636C318.57 62.5758 310.956 71.7803 305.426 83.9773C299.972 96.0985 297.244 110.985 297.244 128.636C297.244 146.288 299.972 161.212 305.426 173.409C310.956 185.53 318.57 194.735 328.267 201.023C337.964 207.235 349.138 210.341 361.79 210.341C374.441 210.341 385.616 207.235 395.312 201.023C405.009 194.735 412.585 185.53 418.04 173.409C423.57 161.212 426.335 146.288 426.335 128.636ZM587.443 245H508.58V12.2727H589.034C612.14 12.2727 631.989 16.9318 648.58 26.25C665.246 35.4924 678.049 48.7879 686.989 66.1364C695.928 83.4848 700.398 104.242 700.398 128.409C700.398 152.652 695.89 173.485 686.875 190.909C677.936 208.333 665.019 221.705 648.125 231.023C631.307 240.341 611.08 245 587.443 245ZM550.739 208.523H585.398C601.61 208.523 615.133 205.568 625.966 199.659C636.799 193.674 644.943 184.773 650.398 172.955C655.852 161.061 658.58 146.212 658.58 128.409C658.58 110.606 655.852 95.8333 650.398 84.0909C644.943 72.2727 636.875 63.447 626.193 57.6136C615.587 51.7045 602.405 48.75 586.648 48.75H550.739V208.523ZM740.455 245V12.2727H891.818V47.6136H782.614V110.795H883.977V146.136H782.614V209.659H892.727V245H740.455Z" fill="#0D86D6"/>
<rect y="111" width="473" height="27" fill="white"/>
<rect x="508" y="8" width="43" height="148" fill="white"/>
<rect x="551" y="188" width="23" height="68" fill="white"/>
<rect x="783" width="23" height="256" fill="white"/>
</svg>
