<svg width="413" height="395" viewBox="0 0 413 395" fill="none" xmlns="http://www.w3.org/2000/svg">
<g filter="url(#filter0_d_79_12)">
<ellipse cx="206.5" cy="193.5" rx="202.5" ry="193.5" fill="#0A68A6"/>
<path d="M128.131 305.174L145.916 323.222L226.222 244.526L208.892 225.586L128.131 305.174Z" fill="white"/>
<path d="M177.126 305.175L194.916 323.217L275.2 244.499L257.865 225.564L177.126 305.175Z" fill="white"/>
<path d="M223.069 305.852L240.021 323.834L351.529 213.179L365.371 224.43L381.267 167.605L322.534 182.161L335.025 195.199L223.069 305.852Z" fill="white"/>
<path d="M120.945 301.157L155.434 268.011C132.441 257.411 93.3532 220.622 120.945 158.273C139.608 130.353 192.432 89.473 254.423 149.314L282.641 116.617C258.454 93.4743 192.79 57.044 123.632 96.4604C112.285 102.283 86.7239 120.917 75.2573 148.866C68.3893 163.946 58.0574 203.333 71.674 240.241C77.1984 253.38 94.7866 283.957 120.945 301.157Z" fill="white"/>
</g>
<defs>
<filter id="filter0_d_79_12" x="0" y="0" width="413" height="395" filterUnits="userSpaceOnUse" color-interpolation-filters="sRGB">
<feFlood flood-opacity="0" result="BackgroundImageFix"/>
<feColorMatrix in="SourceAlpha" type="matrix" values="0 0 0 0 0 0 0 0 0 0 0 0 0 0 0 0 0 0 127 0" result="hardAlpha"/>
<feOffset dy="4"/>
<feGaussianBlur stdDeviation="2"/>
<feComposite in2="hardAlpha" operator="out"/>
<feColorMatrix type="matrix" values="0 0 0 0 0 0 0 0 0 0 0 0 0 0 0 0 0 0 0.25 0"/>
<feBlend mode="normal" in2="BackgroundImageFix" result="effect1_dropShadow_79_12"/>
<feBlend mode="normal" in="SourceGraphic" in2="effect1_dropShadow_79_12" result="shape"/>
</filter>
</defs>
</svg>
