<svg width="1383" height="407" viewBox="0 0 1383 407" fill="none" xmlns="http://www.w3.org/2000/svg">
<g filter="url(#filter0_d_53_22)">
<path d="M502.685 397H488.835L528.892 287.909H542.528L582.585 397H568.736L536.136 305.168H535.284L502.685 397ZM507.798 354.386H563.622V366.105H507.798V354.386ZM682.235 322H669.024C668.243 318.2 666.876 314.862 664.923 311.986C663.005 309.109 660.661 306.695 657.892 304.741C655.157 302.753 652.121 301.261 648.783 300.267C645.445 299.273 641.965 298.776 638.343 298.776C631.737 298.776 625.754 300.445 620.392 303.783C615.065 307.121 610.821 312.039 607.661 318.538C604.536 325.036 602.973 333.009 602.973 342.455C602.973 351.901 604.536 359.873 607.661 366.371C610.821 372.87 615.065 377.788 620.392 381.126C625.754 384.464 631.737 386.134 638.343 386.134C641.965 386.134 645.445 385.636 648.783 384.642C652.121 383.648 655.157 382.174 657.892 380.221C660.661 378.232 663.005 375.8 664.923 372.923C666.876 370.011 668.243 366.673 669.024 362.909H682.235C681.24 368.484 679.429 373.474 676.801 377.877C674.173 382.281 670.906 386.027 667 389.116C663.094 392.17 658.708 394.496 653.843 396.094C649.014 397.692 643.847 398.491 638.343 398.491C629.039 398.491 620.764 396.219 613.52 391.673C606.276 387.128 600.576 380.665 596.421 372.284C592.267 363.903 590.189 353.96 590.189 342.455C590.189 330.949 592.267 321.006 596.421 312.625C600.576 304.244 606.276 297.781 613.52 293.236C620.764 288.69 629.039 286.418 638.343 286.418C643.847 286.418 649.014 287.217 653.843 288.815C658.708 290.413 663.094 292.756 667 295.846C670.906 298.9 674.173 302.629 676.801 307.032C679.429 311.4 681.24 316.389 682.235 322ZM708.056 397H694.206L734.263 287.909H747.9L787.956 397H774.107L741.507 305.168H740.655L708.056 397ZM713.169 354.386H768.993V366.105H713.169V354.386ZM838.613 397H804.949V287.909H840.105C850.687 287.909 859.743 290.093 867.271 294.461C874.799 298.793 880.57 305.026 884.583 313.158C888.596 321.254 890.602 330.949 890.602 342.241C890.602 353.605 888.578 363.388 884.529 371.592C880.481 379.759 874.586 386.045 866.845 390.448C859.103 394.816 849.693 397 838.613 397ZM818.159 385.281H837.761C846.781 385.281 854.256 383.541 860.186 380.061C866.117 376.581 870.538 371.627 873.45 365.2C876.362 358.772 877.818 351.119 877.818 342.241C877.818 333.435 876.38 325.853 873.503 319.496C870.627 313.104 866.33 308.204 860.613 304.795C854.895 301.35 847.775 299.628 839.252 299.628H818.159V385.281ZM912.761 397V287.909H978.599V299.628H925.971V336.489H975.19V348.207H925.971V385.281H979.451V397H912.761ZM1002.41 287.909H1018.18L1055.25 378.463H1056.53L1093.6 287.909H1109.37V397H1097.01V314.116H1095.95L1061.86 397H1049.92L1015.83 314.116H1014.77V397H1002.41V287.909ZM1149.07 287.909V397H1135.86V287.909H1149.07ZM1263.34 322H1250.13C1249.35 318.2 1247.98 314.862 1246.03 311.986C1244.11 309.109 1241.76 306.695 1239 304.741C1236.26 302.753 1233.22 301.261 1229.89 300.267C1226.55 299.273 1223.07 298.776 1219.45 298.776C1212.84 298.776 1206.86 300.445 1201.5 303.783C1196.17 307.121 1191.92 312.039 1188.76 318.538C1185.64 325.036 1184.08 333.009 1184.08 342.455C1184.08 351.901 1185.64 359.873 1188.76 366.371C1191.92 372.87 1196.17 377.788 1201.5 381.126C1206.86 384.464 1212.84 386.134 1219.45 386.134C1223.07 386.134 1226.55 385.636 1229.89 384.642C1233.22 383.648 1236.26 382.174 1239 380.221C1241.76 378.232 1244.11 375.8 1246.03 372.923C1247.98 370.011 1249.35 366.673 1250.13 362.909H1263.34C1262.34 368.484 1260.53 373.474 1257.9 377.877C1255.28 382.281 1252.01 386.027 1248.1 389.116C1244.2 392.17 1239.81 394.496 1234.95 396.094C1230.12 397.692 1224.95 398.491 1219.45 398.491C1210.14 398.491 1201.87 396.219 1194.62 391.673C1187.38 387.128 1181.68 380.665 1177.52 372.284C1173.37 363.903 1171.29 353.96 1171.29 342.455C1171.29 330.949 1173.37 321.006 1177.52 312.625C1181.68 304.244 1187.38 297.781 1194.62 293.236C1201.87 288.69 1210.14 286.418 1219.45 286.418C1224.95 286.418 1230.12 287.217 1234.95 288.815C1239.81 290.413 1244.2 292.756 1248.1 295.846C1252.01 298.9 1255.28 302.629 1257.9 307.032C1260.53 311.4 1262.34 316.389 1263.34 322ZM1344.34 315.182C1343.7 309.784 1341.11 305.594 1336.57 302.611C1332.02 299.628 1326.45 298.136 1319.84 298.136C1315.01 298.136 1310.79 298.918 1307.16 300.48C1303.58 302.043 1300.77 304.191 1298.75 306.925C1296.76 309.66 1295.76 312.767 1295.76 316.247C1295.76 319.159 1296.46 321.663 1297.84 323.758C1299.26 325.817 1301.07 327.54 1303.28 328.925C1305.48 330.274 1307.78 331.393 1310.2 332.281C1312.61 333.133 1314.83 333.825 1316.86 334.358L1327.94 337.341C1330.78 338.087 1333.94 339.116 1337.42 340.43C1340.93 341.744 1344.29 343.538 1347.49 345.81C1350.72 348.048 1353.38 350.924 1355.48 354.44C1357.57 357.955 1358.62 362.27 1358.62 367.384C1358.62 373.278 1357.07 378.605 1353.99 383.364C1350.93 388.122 1346.46 391.904 1340.56 394.71C1334.7 397.515 1327.58 398.918 1319.2 398.918C1311.39 398.918 1304.62 397.657 1298.91 395.136C1293.23 392.614 1288.75 389.099 1285.48 384.589C1282.25 380.079 1280.42 374.841 1280 368.875H1293.63C1293.99 372.994 1295.37 376.403 1297.79 379.102C1300.24 381.766 1303.33 383.754 1307.06 385.068C1310.82 386.347 1314.87 386.986 1319.2 386.986C1324.24 386.986 1328.77 386.169 1332.78 384.536C1336.8 382.866 1339.98 380.558 1342.32 377.611C1344.66 374.628 1345.84 371.148 1345.84 367.17C1345.84 363.548 1344.82 360.601 1342.8 358.328C1340.78 356.055 1338.11 354.209 1334.81 352.788C1331.51 351.368 1327.94 350.125 1324.1 349.06L1310.68 345.224C1302.16 342.774 1295.41 339.276 1290.44 334.731C1285.47 330.185 1282.98 324.237 1282.98 316.886C1282.98 310.778 1284.63 305.452 1287.93 300.906C1291.27 296.325 1295.75 292.774 1301.36 290.253C1307 287.696 1313.31 286.418 1320.27 286.418C1327.3 286.418 1333.55 287.678 1339.02 290.2C1344.49 292.685 1348.82 296.094 1352.01 300.427C1355.25 304.759 1356.95 309.678 1357.13 315.182H1344.34Z" fill="#0A68A6"/>
</g>
<path d="M692.159 91.7955H649.659C648.447 84.8258 646.212 78.6515 642.955 73.2727C639.697 67.8182 635.644 63.197 630.795 59.4091C625.947 55.6212 620.417 52.7803 614.205 50.8864C608.068 48.9167 601.439 47.9318 594.318 47.9318C581.667 47.9318 570.455 51.1136 560.682 57.4773C550.909 63.7651 543.258 73.0076 537.727 85.2045C532.197 97.3258 529.432 112.136 529.432 129.636C529.432 147.439 532.197 162.439 537.727 174.636C543.333 186.758 550.985 195.924 560.682 202.136C570.455 208.273 581.629 211.341 594.205 211.341C601.174 211.341 607.689 210.432 613.75 208.614C619.886 206.72 625.379 203.955 630.227 200.318C635.152 196.682 639.28 192.212 642.614 186.909C646.023 181.606 648.371 175.545 649.659 168.727L692.159 168.955C690.568 180.015 687.121 190.394 681.818 200.091C676.591 209.788 669.735 218.348 661.25 225.773C652.765 233.121 642.841 238.879 631.477 243.045C620.114 247.136 607.5 249.182 593.636 249.182C573.182 249.182 554.924 244.447 538.864 234.977C522.803 225.508 510.152 211.833 500.909 193.955C491.667 176.076 487.045 154.636 487.045 129.636C487.045 104.561 491.705 83.1212 501.023 65.3182C510.341 47.4394 523.03 33.7651 539.091 24.2954C555.152 14.8257 573.333 10.0909 593.636 10.0909C606.591 10.0909 618.636 11.9091 629.773 15.5454C640.909 19.1818 650.833 24.5227 659.545 31.5682C668.258 38.5379 675.417 47.0985 681.023 57.25C686.705 67.3258 690.417 78.8409 692.159 91.7955ZM938.722 129.636C938.722 154.712 934.025 176.189 924.631 194.068C915.313 211.871 902.585 225.508 886.449 234.977C870.388 244.447 852.169 249.182 831.79 249.182C811.411 249.182 793.153 244.447 777.017 234.977C760.956 225.432 748.229 211.758 738.835 193.955C729.517 176.076 724.858 154.636 724.858 129.636C724.858 104.561 729.517 83.1212 738.835 65.3182C748.229 47.4394 760.956 33.7651 777.017 24.2954C793.153 14.8257 811.411 10.0909 831.79 10.0909C852.169 10.0909 870.388 14.8257 886.449 24.2954C902.585 33.7651 915.313 47.4394 924.631 65.3182C934.025 83.1212 938.722 104.561 938.722 129.636ZM896.335 129.636C896.335 111.985 893.57 97.0985 888.04 84.9773C882.585 72.7803 875.009 63.5758 865.312 57.3636C855.616 51.0758 844.441 47.9318 831.79 47.9318C819.138 47.9318 807.964 51.0758 798.267 57.3636C788.57 63.5758 780.956 72.7803 775.426 84.9773C769.972 97.0985 767.244 111.985 767.244 129.636C767.244 147.288 769.972 162.212 775.426 174.409C780.956 186.53 788.57 195.735 798.267 202.023C807.964 208.235 819.138 211.341 831.79 211.341C844.441 211.341 855.616 208.235 865.312 202.023C875.009 195.735 882.585 186.53 888.04 174.409C893.57 162.212 896.335 147.288 896.335 129.636ZM1057.44 246H978.58V13.2727H1059.03C1082.14 13.2727 1101.99 17.9318 1118.58 27.25C1135.25 36.4924 1148.05 49.7879 1156.99 67.1364C1165.93 84.4848 1170.4 105.242 1170.4 129.409C1170.4 153.652 1165.89 174.485 1156.88 191.909C1147.94 209.333 1135.02 222.705 1118.12 232.023C1101.31 241.341 1081.08 246 1057.44 246ZM1020.74 209.523H1055.4C1071.61 209.523 1085.13 206.568 1095.97 200.659C1106.8 194.674 1114.94 185.773 1120.4 173.955C1125.85 162.061 1128.58 147.212 1128.58 129.409C1128.58 111.606 1125.85 96.8333 1120.4 85.0909C1114.94 73.2727 1106.88 64.447 1096.19 58.6136C1085.59 52.7045 1072.41 49.75 1056.65 49.75H1020.74V209.523ZM1210.45 246V13.2727H1361.82V48.6136H1252.61V111.795H1353.98V147.136H1252.61V210.659H1362.73V246H1210.45Z" fill="#0A68A6"/>
<rect x="724" y="120" width="215" height="23" fill="#050D36"/>
<rect x="1020" y="260" width="260" height="23" transform="rotate(-90 1020 260)" fill="#050D36"/>
<rect x="487" y="119" width="43" height="23" fill="#050D36"/>
<rect x="1252" y="13" width="23" height="233" fill="#050D36"/>
<g filter="url(#filter1_d_53_22)">
<ellipse cx="206.5" cy="203.5" rx="202.5" ry="193.5" fill="#0A68A6"/>
<path d="M128.131 315.174L145.916 333.222L226.222 254.526L208.892 235.586L128.131 315.174Z" fill="white"/>
<path d="M177.126 315.175L194.916 333.217L275.2 254.499L257.865 235.564L177.126 315.175Z" fill="white"/>
<path d="M223.069 315.852L240.021 333.834L351.529 223.179L365.371 234.43L381.267 177.605L322.534 192.161L335.025 205.199L223.069 315.852Z" fill="white"/>
<path d="M120.945 311.157L155.434 278.011C132.441 267.411 93.3532 230.622 120.945 168.273C139.608 140.353 192.432 99.473 254.423 159.314L282.641 126.617C258.454 103.474 192.79 67.044 123.632 106.46C112.285 112.283 86.7239 130.917 75.2573 158.866C68.3893 173.946 58.0574 213.333 71.674 250.241C77.1984 263.38 94.7866 293.957 120.945 311.157Z" fill="white"/>
</g>
<defs>
<filter id="filter0_d_53_22" x="484.835" y="286.418" width="877.784" height="120.5" filterUnits="userSpaceOnUse" color-interpolation-filters="sRGB">
<feFlood flood-opacity="0" result="BackgroundImageFix"/>
<feColorMatrix in="SourceAlpha" type="matrix" values="0 0 0 0 0 0 0 0 0 0 0 0 0 0 0 0 0 0 127 0" result="hardAlpha"/>
<feOffset dy="4"/>
<feGaussianBlur stdDeviation="2"/>
<feComposite in2="hardAlpha" operator="out"/>
<feColorMatrix type="matrix" values="0 0 0 0 0 0 0 0 0 0 0 0 0 0 0 0 0 0 0.25 0"/>
<feBlend mode="normal" in2="BackgroundImageFix" result="effect1_dropShadow_53_22"/>
<feBlend mode="normal" in="SourceGraphic" in2="effect1_dropShadow_53_22" result="shape"/>
</filter>
<filter id="filter1_d_53_22" x="0" y="10" width="413" height="395" filterUnits="userSpaceOnUse" color-interpolation-filters="sRGB">
<feFlood flood-opacity="0" result="BackgroundImageFix"/>
<feColorMatrix in="SourceAlpha" type="matrix" values="0 0 0 0 0 0 0 0 0 0 0 0 0 0 0 0 0 0 127 0" result="hardAlpha"/>
<feOffset dy="4"/>
<feGaussianBlur stdDeviation="2"/>
<feComposite in2="hardAlpha" operator="out"/>
<feColorMatrix type="matrix" values="0 0 0 0 0 0 0 0 0 0 0 0 0 0 0 0 0 0 0.25 0"/>
<feBlend mode="normal" in2="BackgroundImageFix" result="effect1_dropShadow_53_22"/>
<feBlend mode="normal" in="SourceGraphic" in2="effect1_dropShadow_53_22" result="shape"/>
</filter>
</defs>
</svg>
