<svg width="913" height="475" viewBox="0 0 913 475" fill="none" xmlns="http://www.w3.org/2000/svg">
<path d="M32.6847 387H18.8352L58.892 277.909H72.5284L112.585 387H98.7358L66.1364 295.168H65.2841L32.6847 387ZM37.7983 344.386H93.6222V356.105H37.7983V344.386ZM212.235 312H199.024C198.243 308.2 196.876 304.862 194.923 301.986C193.005 299.109 190.661 296.695 187.892 294.741C185.157 292.753 182.121 291.261 178.783 290.267C175.445 289.273 171.965 288.776 168.343 288.776C161.737 288.776 155.754 290.445 150.392 293.783C145.065 297.121 140.821 302.039 137.661 308.538C134.536 315.036 132.973 323.009 132.973 332.455C132.973 341.901 134.536 349.873 137.661 356.371C140.821 362.87 145.065 367.788 150.392 371.126C155.754 374.464 161.737 376.134 168.343 376.134C171.965 376.134 175.445 375.636 178.783 374.642C182.121 373.648 185.157 372.174 187.892 370.221C190.661 368.232 193.005 365.8 194.923 362.923C196.876 360.011 198.243 356.673 199.024 352.909H212.235C211.24 358.484 209.429 363.474 206.801 367.877C204.173 372.281 200.906 376.027 197 379.116C193.094 382.17 188.708 384.496 183.843 386.094C179.014 387.692 173.847 388.491 168.343 388.491C159.039 388.491 150.764 386.219 143.52 381.673C136.276 377.128 130.576 370.665 126.421 362.284C122.267 353.903 120.189 343.96 120.189 332.455C120.189 320.949 122.267 311.006 126.421 302.625C130.576 294.244 136.276 287.781 143.52 283.236C150.764 278.69 159.039 276.418 168.343 276.418C173.847 276.418 179.014 277.217 183.843 278.815C188.708 280.413 193.094 282.756 197 285.846C200.906 288.9 204.173 292.629 206.801 297.032C209.429 301.4 211.24 306.389 212.235 312ZM238.056 387H224.206L264.263 277.909H277.9L317.956 387H304.107L271.507 295.168H270.655L238.056 387ZM243.169 344.386H298.993V356.105H243.169V344.386ZM368.613 387H334.949V277.909H370.105C380.687 277.909 389.743 280.093 397.271 284.461C404.799 288.793 410.57 295.026 414.583 303.158C418.596 311.254 420.602 320.949 420.602 332.241C420.602 343.605 418.578 353.388 414.529 361.592C410.481 369.759 404.586 376.045 396.845 380.448C389.103 384.816 379.693 387 368.613 387ZM348.159 375.281H367.761C376.781 375.281 384.256 373.541 390.186 370.061C396.117 366.581 400.538 361.627 403.45 355.2C406.362 348.772 407.818 341.119 407.818 332.241C407.818 323.435 406.38 315.853 403.503 309.496C400.627 303.104 396.33 298.204 390.613 294.795C384.895 291.35 377.775 289.628 369.252 289.628H348.159V375.281ZM442.761 387V277.909H508.599V289.628H455.971V326.489H505.19V338.207H455.971V375.281H509.451V387H442.761ZM532.409 277.909H548.176L585.25 368.463H586.529L623.603 277.909H639.37V387H627.012V304.116H625.946L591.855 387H579.924L545.833 304.116H544.767V387H532.409V277.909ZM679.067 277.909V387H665.857V277.909H679.067ZM793.338 312H780.128C779.347 308.2 777.979 304.862 776.026 301.986C774.109 299.109 771.765 296.695 768.995 294.741C766.261 292.753 763.224 291.261 759.886 290.267C756.548 289.273 753.068 288.776 749.446 288.776C742.841 288.776 736.857 290.445 731.495 293.783C726.168 297.121 721.925 302.039 718.764 308.538C715.639 315.036 714.077 323.009 714.077 332.455C714.077 341.901 715.639 349.873 718.764 356.371C721.925 362.87 726.168 367.788 731.495 371.126C736.857 374.464 742.841 376.134 749.446 376.134C753.068 376.134 756.548 375.636 759.886 374.642C763.224 373.648 766.261 372.174 768.995 370.221C771.765 368.232 774.109 365.8 776.026 362.923C777.979 360.011 779.347 356.673 780.128 352.909H793.338C792.344 358.484 790.533 363.474 787.905 367.877C785.277 372.281 782.01 376.027 778.104 379.116C774.197 382.17 769.812 384.496 764.947 386.094C760.117 387.692 754.95 388.491 749.446 388.491C740.142 388.491 731.868 386.219 724.624 381.673C717.379 377.128 711.68 370.665 707.525 362.284C703.37 353.903 701.293 343.96 701.293 332.455C701.293 320.949 703.37 311.006 707.525 302.625C711.68 294.244 717.379 287.781 724.624 283.236C731.868 278.69 740.142 276.418 749.446 276.418C754.95 276.418 760.117 277.217 764.947 278.815C769.812 280.413 774.197 282.756 778.104 285.846C782.01 288.9 785.277 292.629 787.905 297.032C790.533 301.4 792.344 306.389 793.338 312ZM874.344 305.182C873.705 299.784 871.112 295.594 866.567 292.611C862.021 289.628 856.446 288.136 849.841 288.136C845.012 288.136 840.786 288.918 837.164 290.48C833.577 292.043 830.771 294.191 828.747 296.925C826.759 299.66 825.764 302.767 825.764 306.247C825.764 309.159 826.457 311.663 827.842 313.758C829.262 315.817 831.073 317.54 833.275 318.925C835.477 320.274 837.785 321.393 840.2 322.281C842.615 323.133 844.834 323.825 846.858 324.358L857.938 327.341C860.779 328.087 863.939 329.116 867.419 330.43C870.935 331.744 874.291 333.538 877.487 335.81C880.718 338.048 883.382 340.924 885.477 344.44C887.572 347.955 888.619 352.27 888.619 357.384C888.619 363.278 887.075 368.605 883.985 373.364C880.931 378.122 876.457 381.904 870.562 384.71C864.703 387.515 857.583 388.918 849.202 388.918C841.389 388.918 834.624 387.657 828.907 385.136C823.225 382.614 818.751 379.099 815.484 374.589C812.252 370.079 810.423 364.841 809.997 358.875H823.634C823.989 362.994 825.374 366.403 827.789 369.102C830.239 371.766 833.328 373.754 837.057 375.068C840.821 376.347 844.869 376.986 849.202 376.986C854.244 376.986 858.772 376.169 862.785 374.536C866.798 372.866 869.976 370.558 872.32 367.611C874.664 364.628 875.835 361.148 875.835 357.17C875.835 353.548 874.823 350.601 872.799 348.328C870.775 346.055 868.112 344.209 864.809 342.788C861.507 341.368 857.938 340.125 854.102 339.06L840.679 335.224C832.156 332.774 825.409 329.276 820.438 324.731C815.466 320.185 812.98 314.237 812.98 306.886C812.98 300.778 814.632 295.452 817.934 290.906C821.272 286.325 825.747 282.774 831.357 280.253C837.004 277.696 843.307 276.418 850.267 276.418C857.298 276.418 863.548 277.678 869.017 280.2C874.486 282.685 878.818 286.094 882.014 290.427C885.246 294.759 886.95 299.678 887.128 305.182H874.344Z" fill="#0D86D6"/>
<path d="M222.159 81.7955H179.659C178.447 74.8258 176.212 68.6515 172.955 63.2727C169.697 57.8182 165.644 53.197 160.795 49.4091C155.947 45.6212 150.417 42.7803 144.205 40.8864C138.068 38.9167 131.439 37.9318 124.318 37.9318C111.667 37.9318 100.455 41.1136 90.6818 47.4773C80.9091 53.7651 73.2576 63.0076 67.7273 75.2045C62.197 87.3258 59.4318 102.136 59.4318 119.636C59.4318 137.439 62.197 152.439 67.7273 164.636C73.3333 176.758 80.9848 185.924 90.6818 192.136C100.455 198.273 111.629 201.341 124.205 201.341C131.174 201.341 137.689 200.432 143.75 198.614C149.886 196.72 155.379 193.955 160.227 190.318C165.152 186.682 169.28 182.212 172.614 176.909C176.023 171.606 178.371 165.545 179.659 158.727L222.159 158.955C220.568 170.015 217.121 180.394 211.818 190.091C206.591 199.788 199.735 208.348 191.25 215.773C182.765 223.121 172.841 228.879 161.477 233.045C150.114 237.136 137.5 239.182 123.636 239.182C103.182 239.182 84.9242 234.447 68.8636 224.977C52.803 215.508 40.1515 201.833 30.9091 183.955C21.6667 166.076 17.0455 144.636 17.0455 119.636C17.0455 94.5606 21.7045 73.1212 31.0227 55.3182C40.3409 37.4394 53.0303 23.7651 69.0909 14.2954C85.1515 4.82575 103.333 0.0909004 123.636 0.0909004C136.591 0.0909004 148.636 1.90908 159.773 5.54544C170.909 9.18181 180.833 14.5227 189.545 21.5682C198.258 28.5379 205.417 37.0985 211.023 47.25C216.705 57.3258 220.417 68.8409 222.159 81.7955ZM468.722 119.636C468.722 144.712 464.025 166.189 454.631 184.068C445.313 201.871 432.585 215.508 416.449 224.977C400.388 234.447 382.169 239.182 361.79 239.182C341.411 239.182 323.153 234.447 307.017 224.977C290.956 215.432 278.229 201.758 268.835 183.955C259.517 166.076 254.858 144.636 254.858 119.636C254.858 94.5606 259.517 73.1212 268.835 55.3182C278.229 37.4394 290.956 23.7651 307.017 14.2954C323.153 4.82575 341.411 0.0909004 361.79 0.0909004C382.169 0.0909004 400.388 4.82575 416.449 14.2954C432.585 23.7651 445.313 37.4394 454.631 55.3182C464.025 73.1212 468.722 94.5606 468.722 119.636ZM426.335 119.636C426.335 101.985 423.57 87.0985 418.04 74.9773C412.585 62.7803 405.009 53.5758 395.312 47.3636C385.616 41.0758 374.441 37.9318 361.79 37.9318C349.138 37.9318 337.964 41.0758 328.267 47.3636C318.57 53.5758 310.956 62.7803 305.426 74.9773C299.972 87.0985 297.244 101.985 297.244 119.636C297.244 137.288 299.972 152.212 305.426 164.409C310.956 176.53 318.57 185.735 328.267 192.023C337.964 198.235 349.138 201.341 361.79 201.341C374.441 201.341 385.616 198.235 395.312 192.023C405.009 185.735 412.585 176.53 418.04 164.409C423.57 152.212 426.335 137.288 426.335 119.636ZM587.443 236H508.58V3.27272H589.034C612.14 3.27272 631.989 7.93181 648.58 17.25C665.246 26.4924 678.049 39.7879 686.989 57.1364C695.928 74.4848 700.398 95.2424 700.398 119.409C700.398 143.652 695.89 164.485 686.875 181.909C677.936 199.333 665.019 212.705 648.125 222.023C631.307 231.341 611.08 236 587.443 236ZM550.739 199.523H585.398C601.61 199.523 615.133 196.568 625.966 190.659C636.799 184.674 644.943 175.773 650.398 163.955C655.852 152.061 658.58 137.212 658.58 119.409C658.58 101.606 655.852 86.8333 650.398 75.0909C644.943 63.2727 636.875 54.447 626.193 48.6136C615.587 42.7045 602.405 39.75 586.648 39.75H550.739V199.523ZM740.455 236V3.27272H891.818V38.6136H782.614V101.795H883.977V137.136H782.614V200.659H892.727V236H740.455Z" fill="#0D86D6"/>
<path d="M34.6875 434V474H29.8438V434H34.6875ZM42.2119 438.297V434H72.2119V438.297H59.6338V474H54.79V438.297H42.2119ZM107.5 474H95.1563V434H108.047C111.927 434 115.247 434.801 118.008 436.402C120.768 437.991 122.884 440.276 124.355 443.258C125.827 446.227 126.563 449.781 126.563 453.922C126.563 458.089 125.82 461.676 124.336 464.684C122.852 467.678 120.69 469.983 117.852 471.598C115.013 473.199 111.563 474 107.5 474ZM100 469.703H107.188C110.495 469.703 113.236 469.065 115.41 467.789C117.585 466.513 119.206 464.697 120.273 462.34C121.341 459.983 121.875 457.177 121.875 453.922C121.875 450.693 121.348 447.913 120.293 445.582C119.238 443.238 117.663 441.441 115.566 440.191C113.47 438.928 110.859 438.297 107.734 438.297H100V469.703ZM134.688 474V434H158.828V438.297H139.531V451.812H157.578V456.109H139.531V469.703H159.141V474H134.688ZM169.199 434L181.074 467.672H181.543L193.418 434H198.496L183.809 474H178.809L164.121 434H169.199ZM204.727 474V434H228.867V438.297H209.57V451.812H227.617V456.109H209.57V469.703H229.18V474H204.727ZM237.598 474V434H242.441V469.703H261.035V474H237.598ZM300.728 454C300.728 458.219 299.966 461.865 298.442 464.937C296.919 468.01 294.829 470.38 292.173 472.047C289.517 473.714 286.483 474.547 283.071 474.547C279.66 474.547 276.626 473.714 273.97 472.047C271.313 470.38 269.224 468.01 267.7 464.937C266.177 461.865 265.415 458.219 265.415 454C265.415 449.781 266.177 446.135 267.7 443.062C269.224 439.99 271.313 437.62 273.97 435.953C276.626 434.286 279.66 433.453 283.071 433.453C286.483 433.453 289.517 434.286 292.173 435.953C294.829 437.62 296.919 439.99 298.442 443.062C299.966 446.135 300.728 449.781 300.728 454ZM296.04 454C296.04 450.536 295.461 447.613 294.302 445.23C293.156 442.848 291.6 441.044 289.634 439.82C287.681 438.596 285.493 437.984 283.071 437.984C280.649 437.984 278.455 438.596 276.489 439.82C274.536 441.044 272.98 442.848 271.821 445.23C270.675 447.613 270.103 450.536 270.103 454C270.103 457.464 270.675 460.387 271.821 462.77C272.98 465.152 274.536 466.956 276.489 468.18C278.455 469.404 280.649 470.016 283.071 470.016C285.493 470.016 287.681 469.404 289.634 468.18C291.6 466.956 293.156 465.152 294.302 462.77C295.461 460.387 296.04 457.464 296.04 454ZM308.872 474V434H322.388C325.526 434 328.091 434.566 330.083 435.699C332.088 436.819 333.573 438.336 334.536 440.25C335.5 442.164 335.981 444.299 335.981 446.656C335.981 449.013 335.5 451.155 334.536 453.082C333.586 455.009 332.114 456.546 330.122 457.691C328.13 458.824 325.578 459.391 322.466 459.391H312.778V455.094H322.31C324.458 455.094 326.183 454.723 327.485 453.98C328.787 453.238 329.731 452.236 330.317 450.973C330.916 449.697 331.216 448.258 331.216 446.656C331.216 445.055 330.916 443.622 330.317 442.359C329.731 441.096 328.781 440.107 327.466 439.391C326.151 438.661 324.406 438.297 322.231 438.297H313.716V474H308.872ZM343.784 434H349.565L363.159 467.203H363.628L377.222 434H383.003V474H378.472V443.609H378.081L365.581 474H361.206L348.706 443.609H348.315V474H343.784V434ZM392.715 474V434H416.855V438.297H397.559V451.812H415.605V456.109H397.559V469.703H417.168V474H392.715ZM457.305 434V474H452.617L430.82 442.594H430.43V474H425.586V434H430.273L452.148 465.484H452.539V434H457.305ZM464.81 438.297V434H494.81V438.297H482.231V474H477.388V438.297H464.81ZM528.457 474.547C525.827 474.547 523.561 474.065 521.66 473.102C519.759 472.138 518.294 470.816 517.266 469.137C516.237 467.457 515.723 465.536 515.723 463.375C515.723 461.708 516.074 460.23 516.777 458.941C517.493 457.639 518.477 456.435 519.727 455.328C520.99 454.208 522.441 453.089 524.082 451.969L529.863 447.672C530.996 446.93 531.901 446.135 532.578 445.289C533.268 444.443 533.613 443.336 533.613 441.969C533.613 440.953 533.164 439.97 532.266 439.02C531.38 438.069 530.215 437.594 528.77 437.594C527.754 437.594 526.855 437.854 526.074 438.375C525.306 438.883 524.701 439.534 524.258 440.328C523.828 441.109 523.613 441.917 523.613 442.75C523.613 443.688 523.867 444.638 524.375 445.602C524.896 446.552 525.553 447.529 526.348 448.531C527.155 449.521 527.988 450.536 528.848 451.578L547.207 474H541.66L526.504 455.719C525.098 454.026 523.822 452.49 522.676 451.109C521.53 449.729 520.618 448.368 519.941 447.027C519.264 445.686 518.926 444.234 518.926 442.672C518.926 440.875 519.323 439.299 520.117 437.945C520.924 436.578 522.051 435.517 523.496 434.762C524.954 433.993 526.66 433.609 528.613 433.609C530.618 433.609 532.344 434 533.789 434.781C535.234 435.549 536.348 436.572 537.129 437.848C537.91 439.111 538.301 440.484 538.301 441.969C538.301 443.883 537.826 445.543 536.875 446.949C535.924 448.355 534.629 449.664 532.988 450.875L525.02 456.812C523.223 458.141 522.005 459.43 521.367 460.68C520.729 461.93 520.41 462.828 520.41 463.375C520.41 464.625 520.736 465.79 521.387 466.871C522.038 467.952 522.956 468.824 524.141 469.488C525.326 470.152 526.712 470.484 528.301 470.484C529.811 470.484 531.283 470.165 532.715 469.527C534.147 468.876 535.443 467.939 536.602 466.715C537.773 465.491 538.698 464.02 539.375 462.301C540.065 460.582 540.41 458.648 540.41 456.5H544.863C544.863 459.156 544.557 461.324 543.945 463.004C543.333 464.684 542.643 465.999 541.875 466.949C541.107 467.9 540.488 468.609 540.02 469.078C539.863 469.273 539.72 469.469 539.59 469.664C539.46 469.859 539.316 470.055 539.16 470.25C537.871 471.695 536.243 472.776 534.277 473.492C532.311 474.195 530.371 474.547 528.457 474.547ZM568.403 474V434H592.544V438.297H573.247V451.812H591.294V456.109H573.247V469.703H592.856V474H568.403ZM613.618 474H601.274V434H614.165C618.045 434 621.366 434.801 624.126 436.402C626.886 437.991 629.002 440.276 630.474 443.258C631.945 446.227 632.681 449.781 632.681 453.922C632.681 458.089 631.938 461.676 630.454 464.684C628.97 467.678 626.808 469.983 623.97 471.598C621.131 473.199 617.681 474 613.618 474ZM606.118 469.703H613.306C616.613 469.703 619.354 469.065 621.528 467.789C623.703 466.513 625.324 464.697 626.392 462.34C627.459 459.983 627.993 457.177 627.993 453.922C627.993 450.693 627.466 447.913 626.411 445.582C625.356 443.238 623.781 441.441 621.685 440.191C619.588 438.928 616.978 438.297 613.853 438.297H606.118V469.703ZM667.056 434H671.899V460.484C671.899 463.219 671.255 465.66 669.966 467.809C668.69 469.944 666.886 471.63 664.556 472.867C662.225 474.091 659.491 474.703 656.353 474.703C653.215 474.703 650.48 474.091 648.149 472.867C645.819 471.63 644.009 469.944 642.72 467.809C641.444 465.66 640.806 463.219 640.806 460.484V434H645.649V460.094C645.649 462.047 646.079 463.785 646.938 465.309C647.798 466.819 649.022 468.01 650.61 468.883C652.212 469.742 654.126 470.172 656.353 470.172C658.579 470.172 660.493 469.742 662.095 468.883C663.696 468.01 664.92 466.819 665.767 465.309C666.626 463.785 667.056 462.047 667.056 460.094V434ZM713.76 446.5H708.916C708.63 445.107 708.128 443.883 707.412 442.828C706.709 441.773 705.85 440.888 704.834 440.172C703.831 439.443 702.718 438.896 701.494 438.531C700.27 438.167 698.994 437.984 697.666 437.984C695.244 437.984 693.05 438.596 691.084 439.82C689.131 441.044 687.575 442.848 686.416 445.23C685.27 447.613 684.697 450.536 684.697 454C684.697 457.464 685.27 460.387 686.416 462.77C687.575 465.152 689.131 466.956 691.084 468.18C693.05 469.404 695.244 470.016 697.666 470.016C698.994 470.016 700.27 469.833 701.494 469.469C702.718 469.104 703.831 468.564 704.834 467.848C705.85 467.118 706.709 466.227 707.412 465.172C708.128 464.104 708.63 462.88 708.916 461.5H713.76C713.395 463.544 712.731 465.374 711.768 466.988C710.804 468.603 709.606 469.977 708.174 471.109C706.742 472.229 705.133 473.082 703.35 473.668C701.579 474.254 699.684 474.547 697.666 474.547C694.255 474.547 691.221 473.714 688.564 472.047C685.908 470.38 683.818 468.01 682.295 464.937C680.771 461.865 680.01 458.219 680.01 454C680.01 449.781 680.771 446.135 682.295 443.062C683.818 439.99 685.908 437.62 688.564 435.953C691.221 434.286 694.255 433.453 697.666 433.453C699.684 433.453 701.579 433.746 703.35 434.332C705.133 434.918 706.742 435.777 708.174 436.91C709.606 438.03 710.804 439.397 711.768 441.012C712.731 442.613 713.395 444.443 713.76 446.5ZM723.228 474H718.149L732.837 434H737.837L752.524 474H747.446L735.493 440.328H735.181L723.228 474ZM725.103 458.375H745.571V462.672H725.103V458.375ZM751.895 438.297V434H781.895V438.297H769.316V474H764.473V438.297H751.895ZM794.214 434V474H789.37V434H794.214ZM837.676 454C837.676 458.219 836.914 461.865 835.391 464.937C833.867 468.01 831.777 470.38 829.121 472.047C826.465 473.714 823.431 474.547 820.02 474.547C816.608 474.547 813.574 473.714 810.918 472.047C808.262 470.38 806.172 468.01 804.648 464.937C803.125 461.865 802.363 458.219 802.363 454C802.363 449.781 803.125 446.135 804.648 443.062C806.172 439.99 808.262 437.62 810.918 435.953C813.574 434.286 816.608 433.453 820.02 433.453C823.431 433.453 826.465 434.286 829.121 435.953C831.777 437.62 833.867 439.99 835.391 443.062C836.914 446.135 837.676 449.781 837.676 454ZM832.988 454C832.988 450.536 832.409 447.613 831.25 445.23C830.104 442.848 828.548 441.044 826.582 439.82C824.629 438.596 822.441 437.984 820.02 437.984C817.598 437.984 815.404 438.596 813.438 439.82C811.484 441.044 809.928 442.848 808.77 445.23C807.624 447.613 807.051 450.536 807.051 454C807.051 457.464 807.624 460.387 808.77 462.77C809.928 465.152 811.484 466.956 813.438 468.18C815.404 469.404 817.598 470.016 820.02 470.016C822.441 470.016 824.629 469.404 826.582 468.18C828.548 466.956 830.104 465.152 831.25 462.77C832.409 460.387 832.988 457.464 832.988 454ZM877.539 434V474H872.852L851.055 442.594H850.664V474H845.82V434H850.508L872.383 465.484H872.773V434H877.539Z" fill="#0A68A6"/>
<rect x="14" y="110" width="459" height="23" fill="#050D36"/>
<rect x="508" y="3" width="43" height="144" fill="#050D36"/>
<rect x="551" y="179" width="23" height="57" fill="#050D36"/>
<rect x="782" y="2" width="23" height="235" fill="#050D36"/>
</svg>
